<svg xmlns="http://www.w3.org/2000/svg" width="105" height="105" viewBox="0 0 105 105">
    <defs>
        <linearGradient id="kyp66nf5ua" x1="6.075%" x2="94.883%" y1="0%" y2="100%">
            <stop offset="0%" stop-color="#529CE7"/>
            <stop offset="100%" stop-color="#53D3CA"/>
        </linearGradient>
    </defs>
    <g fill="none" fill-rule="evenodd">
        <g>
            <g>
                <g>
                    <g>
                        <g>
                            <path fill="#1F2129" d="M52.25 94.398c-23.086 0-41.8-18.87-41.8-42.148 0-23.278 18.714-42.148 41.8-42.148s41.8 18.87 41.8 42.148c0 23.278-18.714 42.148-41.8 42.148z" opacity=".7" transform="translate(-154 -208) translate(16 -192) translate(0 338) translate(86 10) translate(52.25 52.25)"/>
                            <path fill="url(#kyp66nf5ua)" d="M52.25 8.708c24.047 0 43.542 19.495 43.542 43.542S76.297 95.792 52.25 95.792 8.708 76.297 8.708 52.25 28.203 8.708 52.25 8.708zm0 3.148c-22.309 0-40.394 18.085-40.394 40.394 0 22.309 18.085 40.394 40.394 40.394 22.309 0 40.394-18.085 40.394-40.394 0-22.309-18.085-40.394-40.394-40.394zm-6.967 22.629c1.54 0 2.787 1.248 2.787 2.787v29.956c0 1.54-1.248 2.787-2.787 2.787s-2.786-1.248-2.786-2.787V37.272c0-1.54 1.247-2.787 2.786-2.787zm13.934 0c1.539 0 2.786 1.248 2.786 2.787v29.956c0 1.54-1.247 2.787-2.786 2.787-1.54 0-2.787-1.248-2.787-2.787V37.272c0-1.54 1.248-2.787 2.787-2.787z" transform="translate(-154 -208) translate(16 -192) translate(0 338) translate(86 10) translate(52.25 52.25)"/>
                        </g>
                    </g>
                </g>
            </g>
        </g>
    </g>
</svg>
