<svg xmlns="http://www.w3.org/2000/svg" width="105" height="105" viewBox="0 0 105 105">
    <defs>
        <linearGradient id="finfhs3iea" x1="6.075%" x2="94.883%" y1="0%" y2="100%">
            <stop offset="0%" stop-color="#529CE7"/>
            <stop offset="100%" stop-color="#53D3CA"/>
        </linearGradient>
    </defs>
    <g fill="none" fill-rule="evenodd">
        <g>
            <g>
                <g>
                    <g>
                        <g>
                            <path fill="#1F2129" d="M52.25 94.05c-23.086 0-41.8-18.714-41.8-41.8s18.714-41.8 41.8-41.8 41.8 18.714 41.8 41.8-18.714 41.8-41.8 41.8z" opacity=".7" transform="translate(-154 -208) translate(16 -192) translate(0 338) translate(86 10) translate(52.25 52.25)"/>
                            <path fill="url(#finfhs3iea)" d="M52.25 8.708c24.047 0 43.542 19.495 43.542 43.542S76.297 95.792 52.25 95.792 8.708 76.297 8.708 52.25 28.203 8.708 52.25 8.708zm0 3.148c-22.309 0-40.394 18.085-40.394 40.394 0 22.309 18.085 40.394 40.394 40.394 22.309 0 40.394-18.085 40.394-40.394 0-22.309-18.085-40.394-40.394-40.394zm-7.961 23.032L68.3 50.967c.95.636.95 2.039 0 2.675L44.289 69.72c-1.064.713-2.489-.053-2.489-1.337V36.226c0-1.284 1.425-2.05 2.489-1.338zm.713 4.342v26.148l19.525-13.074L45.002 39.23z" transform="translate(-154 -208) translate(16 -192) translate(0 338) translate(86 10) translate(52.25 52.25)"/>
                        </g>
                    </g>
                </g>
            </g>
        </g>
    </g>
</svg>
